<svg width="665" height="541" fill="none" xmlns="http://www.w3.org/2000/svg"><path fill-rule="evenodd" clip-rule="evenodd" d="M378.955.338c-.397 0-.794.132-1.22.396-.367.25-.749.647-1.205 1.588l4.63 54.308c2.542 29.865 4.659 54.675 4.791 55.924l-1.073.573c-.588.324-1.999 1.103-3.13 1.749a148.905 148.905 0 00-3.822 2.278 132.19 132.19 0 00-4.262 2.793 166.325 166.325 0 00-4.409 3.116c-1.059.779-2.631 2.013-3.528 2.719-.896.72-2.307 1.896-3.16 2.616-.852.72-2.572 2.263-3.821 3.41a120.96 120.96 0 00-4.395 4.277 132.755 132.755 0 00-3.88 4.174 155.18 155.18 0 00-1.852 2.102c-.044.059-5.614-2.793-12.36-6.335-6.747-3.557-26.324-13.845-43.505-22.884-17.182-9.039-31.571-16.594-31.968-16.77-.544-.25-1.043-.353-1.91-.382-1.029-.03-1.25.014-1.72.323-.309.206-.661.588-.779.838-.118.264-.22.764-.22 1.102 0 .368.117.823.279 1.073.147.25 16.226 17.74 35.73 38.875 19.503 21.136 35.48 38.479 35.509 38.552.029.059-.309 1.029-.749 2.161a134.406 134.406 0 00-1.823 5.1c-.573 1.69-1.337 4.145-1.705 5.482-.367 1.338-.838 3.013-1.029 3.748-.206.735-.499 2.249-.661 3.38-.191 1.353-.25 2.205-.162 2.499.059.25.265.72.441 1.058.162.353.485.765.72.941.221.162.632.353.912.441.279.073 15.329 2.249 33.437 4.85 18.107 2.587 33.275 4.747 33.716 4.806.426.059.808.147.838.206.029.073-14.081.117-31.35.117-17.285 0-37.876.03-45.754.074s-81.381.103-163.335.147c-126.061.059-149.063.103-149.474.279-.25.103-.647.382-.853.617-.22.236-.5.794-.646 1.235-.147.441-.221 1.044-.192 1.323.044.294 5.938 12.023 13.346 26.529 7.29 14.301 22.943 44.96 34.76 68.124 11.817 23.163 35.333 69.225 52.25 102.368 16.917 33.144 30.938 60.658 31.159 61.143.22.485.558 1.028.749 1.205.191.176.529.382.75.47.25.103 3.072.221 7.055.309 3.659.073 9.803.206 13.639.294 3.836.088 22.487.485 41.447.882 18.96.396 39.155.837 44.902.955 5.746.117 13.316.294 16.828.367 3.513.089 9.142.191 12.493.236 5.879.088 6.115.073 6.614-.206.294-.162.662-.559.853-.926.264-.485.323-.794.264-1.235-.044-.323-1.822-4.556-7.834-18.225l1.485-.044c.823-.015 26.382.632 56.821 1.426 44.578 1.19 55.454 1.44 55.91 1.293a4.166 4.166 0 001.029-.558c.249-.206.573-.618.705-.912.147-.294.265-.735.265-.984 0-.25-.133-.706-.294-1.029a2.282 2.282 0 00-.926-.941c-.338-.206-7.496-3.513-15.903-7.378-8.407-3.851-15.359-7.084-15.447-7.173-.089-.088-5.012-10.979-10.921-24.192-5.908-13.213-10.729-24.045-10.714-24.06.029-.014 20.591-.088 91.345-.264l13.067 26.235c12.316 24.692 13.11 26.265 13.727 26.779a8.28 8.28 0 001.396.882c.721.338.809.338 6.026.338 2.911 0 18.916-.044 35.569-.118 16.652-.059 30.644-.147 31.085-.176.485-.044 1.014-.206 1.308-.412.28-.176.735-.69 1-1.131.323-.544.485-1 .485-1.397 0-.367-.147-.881-.412-1.396-.235-.441-3.792-7.187-7.892-14.991a26837.933 26837.933 0 00-13.419-25.501c-3.263-6.217-9.598-18.269-14.066-26.75-4.468-8.495-10.803-20.532-14.066-26.749-3.277-6.217-9.318-17.696-13.419-25.501-4.1-7.804-10.126-19.239-13.374-25.426-3.249-6.188-10.597-20.136-16.315-31.012-5.717-10.877-11.199-21.283-12.169-23.149-.97-1.867-1.984-3.586-2.22-3.836-.25-.25-.72-.544-1.043-.647-.5-.162-.691-.162-1.294.044-.485.177-.793.412-1.058.794-.235.353-.397.852-.455 1.367-.074.691.676 4.512 5.085 25.721 2.837 13.698 5.203 25.044 5.247 25.206.088.294.044.294-14.227.191-7.878-.073-18.681-.118-33.717-.118l-13.154-26.323c-10.156-20.327-13.257-26.426-13.639-26.75a3.039 3.039 0 00-1.029-.588c-.324-.102-2.778-.22-6.203-.294-3.116-.058-11.214-.176-18.004-.264-6.791-.088-20.018-.265-29.395-.382-9.378-.132-21.312-.279-26.53-.353-7.495-.103-9.568-.103-9.921.044-.249.103-.661.426-.925.72-.25.309-.53.706-.618.912-.088.205-.147.676-.147 1.058 0 .617 1.499 4.056 11.332 25.985 6.232 13.904 11.361 25.398 11.391 25.53.059.25-.941.264-19.827.191-10.921-.044-23.311-.103-27.514-.147-4.204-.044-14.286-.088-22.414-.103-8.128-.014-15.668-.044-18.74-.132l-11.758-26.397c-8.921-20.033-11.861-26.485-12.169-26.75-.221-.176-.618-.397-.882-.47-.265-.074-7.261-.074-15.977 0-8.524.059-30.056.22-47.84.353-17.784.117-33.202.235-34.246.264-1.572.03-2.013.088-2.498.324-.353.176-.72.529-.926.881-.28.485-.324.75-.28 1.47.045.853.632 1.97 17.3 32.996 11.111 20.695 17.431 32.32 17.769 32.688.294.309.764.661 1.044.794.44.191 3.6.235 24.03.411 12.934.103 29.572.221 36.965.265 7.393.058 15.373.132 21.973.264l13.948 31.556c7.672 17.343 13.977 31.644 14.006 31.762.059.191-.808.235-6.746.338-3.748.058-10.964.176-16.064.249-5.1.089-13.331.206-18.299.294-4.968.074-14.036.221-20.136.309-6.099.088-11.346.221-11.655.294-.294.074-.72.294-.955.47-.221.191-.559.706-.75 1.147-.249.588-.323.97-.279 1.455.059.544.838 1.94 4.439 7.937 2.41 3.997 4.512 7.437 4.688 7.613.177.191.5.441.72.558.236.118.706.206 1.073.206.471 0 .823.118 1.206.368.308.205.69.382.852.396.162 0 19.416 0 85.246-.073l10.803 24.53c5.938 13.493 11.817 26.882 15.388 34.966l-.676.044c-.367.015-19.621-.456-42.784-1.073-23.164-.602-44.387-1.161-47.18-1.249-2.792-.074-5.408-.147-6.54-.132l-12.949-24.957c-7.128-13.728-22.605-43.534-34.378-66.257-11.787-22.722-31.438-60.598-43.666-84.188-12.243-23.575-22.252-42.932-22.252-43.02 0-.103 1.337-.117 3.85-.073 2.132.029 54.925.073 117.332.103 62.406.029 143.904.073 248.771.191l5.071 9.553c2.793 5.247 7.114 13.39 9.612 18.078 2.484 4.689 8.775 16.52 13.963 26.309 5.203 9.789 11.699 22.017 14.448 27.191 2.748 5.173 6.687 12.61 8.774 16.534 2.087 3.925 12.243 23.061 22.591 42.55 10.347 19.489 22.531 42.432 27.087 51.001 4.557 8.568 10.009 18.857 12.14 22.855 2.117 3.997 3.851 7.29 3.837 7.29-.015.014-32.144-.192-71.387-.441-40.903-.28-71.695-.427-72.165-.353-.441.073-.97.25-1.176.397-.206.147-.514.485-1.043 1.264l.014 9.877c0 5.438-.044 9.906-.103 9.935-.073.015-8.554 0-18.857-.059-10.303-.058-26.999-.132-37.111-.191-10.097-.044-24.354-.132-44.975-.279l-.691.323c-.397.162-.808.456-.926.632a4.677 4.677 0 00-.367.853 2.223 2.223 0 00-.015 1.029c.088.279.368.734.632.999.338.338.706.514 1.22.603.412.073 16.27.205 36.23.294 19.518.088 42.094.22 64.816.382v41.227h-47.179v-33.07l-.338-.779c-.191-.412-.544-.911-.779-1.102-.235-.177-.617-.397-.867-.471-.25-.073-19.769-.147-44.681-.191-24.339-.029-44.475-.029-44.754.015-.279.044-.911.353-1.397.691-.485.338-1.014.837-1.161 1.117-.279.47-.323 1.47-.793 18.725-.28 10.023-.544 18.269-.603 18.313-.044.059-11.126 2.822-24.633 6.158-13.492 3.336-24.795 6.188-25.089 6.335-.309.161-.691.499-.852.749-.177.309-.28.75-.28 1.22 0 .471.103.911.28 1.205.191.324.573.618 1.146.868.456.22 1.205.441 1.646.499.441.074 28.749.162 62.906.206 34.157.044 69.108.118 77.677.162 8.569.044 37.082.117 63.347.161 41.05.074 47.84.059 48.281-.117.28-.118.691-.441.912-.72.205-.28.426-.735.485-1.015.058-.352.014-.72-.177-1.161-.147-.352-.426-.779-.632-.926-.206-.161-.602-.338-.882-.411-.279-.074-21.782-.162-47.767-.206-25.985-.044-57.409-.117-69.814-.162-12.404-.044-43.828-.117-69.813-.161-25.986-.044-47.283-.118-47.327-.147-.044-.03-.014-.103.059-.177.059-.058 7.511-1.925 16.535-4.159 9.024-2.219 16.579-4.086 16.814-4.145.221-.059.632-.323.926-.588.294-.249.603-.617.661-.808.074-.176.368-8.348.647-18.152.279-9.788.514-18.078.514-18.989l17.447.103c9.612.074 28.792.118 67.8.118v16.637c.014 14.242.044 16.741.235 17.241.117.323.323.72.47.867.132.147.515.397.838.544.558.264 1.661.279 26.309.279 16.593 0 25.912-.059 26.279-.147.294-.088.72-.294.955-.485.221-.191.574-.706 1.206-1.94v-43.285l7.466.074c4.101.044 42.476.25 85.276.455 67.079.309 77.926.397 78.558.574.412.117.941.22 1.176.22.25 0 .662-.147.941-.323.279-.191.632-.529.779-.779.147-.25.279-.735.294-1.103.014-.455-.118-.911-.397-1.469-.221-.441-9.612-18.24-20.871-39.537-11.258-21.297-37.714-71.372-58.79-111.261-21.077-39.889-38.508-72.885-38.743-73.312-.235-.411-.382-.793-.309-.837.059-.03 13.346 16.652 29.528 37.082 16.182 20.429 29.733 37.493 30.13 37.934.691.779.72.794 1.661.853.926.058.984.044 1.91-.588.529-.353 1.882-1.338 3.013-2.19 1.132-.853 2.852-2.19 3.822-2.969.97-.794 2.719-2.264 3.895-3.292 1.175-1.014 3.747-3.484 5.732-5.468 1.984-1.984 4.453-4.556 5.467-5.732a183.032 183.032 0 003.292-3.895c.794-.97 2.22-2.822 3.19-4.115a127.14 127.14 0 003.807-5.438c1.131-1.705 2.131-3.072 2.234-3.057.088.014 23.707 8.803 52.485 19.518 44.21 16.461 52.441 19.474 53.058 19.474.441 0 .897-.102 1.132-.264.22-.132.632-.588.926-.985.426-.603.514-.867.514-1.47 0-.529-.088-.867-.323-1.19-.191-.25-21.165-16.094-46.636-35.186a40515.045 40515.045 0 00-46.341-34.745c-.015-.015.161-.809.397-1.779.249-.97.632-2.69.881-3.821.236-1.132.632-3.219.882-4.63s.618-3.836.809-5.365c.205-1.528.485-4.086.632-5.658.205-2.322.264-4.292.264-10.362 0-6.1-.044-8.025-.264-10.362-.147-1.572-.368-3.63-.471-4.556-.176-1.338-.176-1.72-.029-1.867.088-.088 21.37-13.228 47.282-29.189 25.912-15.962 47.371-29.219 47.694-29.439.323-.235.735-.72.926-1.088.264-.514.323-.793.25-1.249-.059-.323-.221-.764-.382-1-.147-.22-.5-.499-.75-.632-.264-.132-.749-.235-1.073-.235-.323 0-.882.147-1.249.309-.368.162-23.84 5.703-52.177 12.287-28.337 6.599-51.677 12.038-51.882 12.067-.338.073-.441-.059-1.426-2.028a126.485 126.485 0 00-2.043-3.866c-.544-.97-1.573-2.763-2.307-3.968-.721-1.22-2.117-3.395-3.087-4.85-.97-1.455-2.69-3.91-3.836-5.439a149.311 149.311 0 00-3.542-4.556c-.794-.97-2.146-2.557-2.984-3.527-.852-.97-3.512-3.733-5.923-6.144-2.425-2.395-4.395-4.394-4.395-4.438 0-.045 9.569-22.914 21.268-50.825 17.564-41.917 21.253-50.854 21.253-51.397.014-.368-.103-.882-.235-1.147-.133-.25-.471-.602-.721-.764-.308-.177-.749-.28-1.22-.294-.587 0-.881.103-1.44.485-.441.28-14.991 15.756-37.626 40.007-20.297 21.738-37.244 39.889-38.39 41.094l-2.278-.867c-1.249-.485-3.601-1.308-5.218-1.837-1.617-.529-3.762-1.205-4.777-1.484-1.014-.28-2.924-.779-4.262-1.117-1.337-.338-3.88-.897-5.658-1.25-1.779-.352-4.615-.852-6.32-1.087a138.67 138.67 0 00-5.218-.662 265.59 265.59 0 00-4.483-.411c-1.411-.103-4.777-.191-8.451-.177-3.498 0-7.069.074-8.378.177-1.249.103-3.262.279-4.482.397-1.206.117-2.352.25-2.528.294-.309.058-.441-.118-1.279-1.808-.5-1.03-11.097-22.9-23.531-48.605C391.507 23.06 381.16 1.778 380.939 1.47c-.205-.324-.617-.706-.896-.853-.279-.147-.764-.28-1.088-.28zm23.369 55.557c10.979 22.678 20.312 41.917 20.739 42.77.441.852 1.249 2.366 1.822 3.38.559 1.014 1.044 1.896 1.058 1.97.03.058 1.103-.015 2.396-.191 1.294-.162 3.41-.397 4.703-.53 1.294-.117 3.836-.293 5.659-.382 1.984-.103 5.012-.132 7.569-.088 2.352.059 5.218.162 6.394.25 1.175.088 3.321.294 4.776.456 1.455.161 3.734.455 5.071.661 1.338.206 3.719.632 5.291.941 1.573.308 4.086.867 5.585 1.249 1.499.367 3.41.882 4.263 1.117.852.25 2.572.779 3.821 1.191 1.249.411 3.498 1.19 4.997 1.734 1.499.544 3.292 1.146 3.998 1.337l1.279.353c1.028-.911 1.91-1.705 2.631-2.352.72-.646 16.02-16.931 33.995-36.185 17.975-19.254 32.702-34.922 32.732-34.833.014.102-8.246 19.915-18.358 44.048-10.126 24.134-18.739 44.696-19.165 45.71a105.096 105.096 0 01-1.014 2.352c-.25.485-.25.529.014.749.147.132 1.191 1.058 2.322 2.058 1.132.999 3.278 3.042 4.777 4.541 1.499 1.499 3.513 3.616 4.483 4.704.97 1.087 2.425 2.777 3.233 3.747.809.971 2.367 2.955 3.469 4.41a167.415 167.415 0 013.763 5.291c.97 1.455 2.454 3.807 3.307 5.218a169.985 169.985 0 012.631 4.556 166.074 166.074 0 012.513 4.953l1.44 2.984a43.667 43.667 0 002.352-.441c.691-.147 2.278-.5 3.527-.794 1.25-.279 21.459-4.983 44.901-10.435 23.443-5.468 42.785-9.965 42.991-10.024.323-.074.338-.059.147.132-.118.118-18.475 11.464-40.786 25.236-22.311 13.757-41.227 25.442-42.035 25.956-.808.5-1.573.985-1.69 1.058-.191.118-.191.338.029 1.955.147.999.367 2.675.485 3.733.118 1.058.279 2.734.368 3.748.088 1.014.22 3.557.293 5.659.089 2.381.089 5.291 0 7.716-.073 2.146-.235 5.056-.367 6.467a128.56 128.56 0 01-.529 4.997 138.36 138.36 0 01-.735 4.997c-.235 1.411-.676 3.66-.955 4.997-.28 1.338-.809 3.572-1.176 4.954l-.647 2.542a142.246 142.246 0 003.572 3.204c1.073.956 18.328 13.978 40.712 30.762 21.356 16.021 38.934 29.219 39.052 29.322.117.103.191.221.147.265-.044.029-21.503-7.922-47.694-17.682-36.127-13.463-47.664-17.71-47.826-17.593-.103.089-.529.721-.956 1.411-.411.691-.837 1.441-.94 1.691-.118.235-.809 1.366-1.558 2.498a189.401 189.401 0 01-2.94 4.263 185.045 185.045 0 01-3.292 4.335 182.372 182.372 0 01-3.542 4.263c-1.014 1.175-3.263 3.571-5.012 5.335-1.734 1.778-3.983 3.968-4.997 4.879-1.014.912-2.763 2.44-3.895 3.381-1.132.955-3.013 2.44-4.189 3.322l-2.131 1.616c-.485-.529-17.005-21.385-37.023-46.679-20.004-25.31-36.627-46.254-36.935-46.562-.309-.309-.823-.691-1.147-.853-.455-.235-.735-.279-1.249-.191-.485.074-.808.235-1.191.632-.352.353-.587.735-.646 1.117-.088.397-.044.779.088 1.176.117.323 18.842 35.833 41.609 78.926 22.766 43.094 51.75 97.93 64.405 121.873 12.654 23.957 23.016 43.578 23.016 43.622 0 .044-1.234.044-2.748 0-1.529-.044-12.317-.103-24.001-.147-11.685-.044-45.607-.22-75.399-.367-29.792-.162-56.851-.294-60.143-.294h-5.996c.058-13.198.102-17.064.147-17.093.044-.044 28.748.103 63.787.338 35.039.235 67.653.441 72.459.47 8.554.044 8.76.044 9.26-.25.309-.176.647-.573.852-.955.309-.617.324-.75.191-1.911-.132-1.249-.146-1.249-2.924-6.467-1.529-2.866-8.481-15.961-15.462-29.101-6.982-13.14-21.15-39.816-31.497-59.305a232792.343 232792.343 0 00-27.632-52.03c-4.85-9.142-11.905-22.428-15.682-29.542-3.777-7.113-11.111-20.929-16.314-30.718-5.189-9.788-9.583-17.99-9.76-18.225a2.387 2.387 0 00-.837-.647 4.059 4.059 0 01-.941-.602 3.004 3.004 0 00-.955-.559c-.368-.117-55.778-.176-188.012-.205l-187.498-.045c-.632.485-.955.838-1.102 1.117-.177.309-.28.735-.265 1.117.03.53 2.484 5.365 14.272 28.073 7.834 15.109 25.206 48.62 38.625 74.487 13.419 25.868 32.952 63.538 43.402 83.703 10.45 20.166 19.166 36.921 19.342 37.215.191.308.661.749 1.058.999.382.235 1.029.5 1.426.588.412.074 22.855.706 49.972 1.396 27.088.691 49.516 1.294 49.869 1.323.47.059.647.147.749.397.074.191 1.691 3.88 3.601 8.201l3.469 7.864c-6.658-.177-11.611-.294-15.285-.368-3.675-.088-22.267-.485-41.301-.882-19.033-.411-42.255-.896-51.588-1.102-9.333-.206-19.387-.412-22.341-.456-2.954-.044-5.438-.132-5.541-.191-.088-.044-2.381-4.424-5.085-9.715-2.705-5.291-13.875-27.19-24.824-48.649-10.965-21.459-33.731-66.081-50.604-99.135C38 280.122 19.995 244.847 14.88 234.794c-5.13-10.038-9.303-18.284-9.274-18.313.015-.03 39.155-.103 86.966-.147 47.811-.044 140.906-.132 206.869-.176 110.644-.089 119.977-.118 120.506-.338.323-.133.735-.412.926-.647.176-.221.382-.618.426-.882a3.16 3.16 0 000-.911c-.044-.25-.412-.867-.823-1.397-.412-.529-.926-1.043-1.147-1.146-.22-.103-8.7-1.367-18.842-2.822-10.141-1.455-30.924-4.424-46.18-6.614-15.271-2.175-27.808-3.968-27.896-3.968-.088 0-.117-.353-.073-.926.044-.5.205-1.382.352-1.94.147-.574.515-1.852.794-2.866.294-1.014.838-2.837 1.205-4.042.382-1.22 1.058-3.234 1.499-4.483a139.365 139.365 0 011.749-4.6l.941-2.308c-2.822-3.557-14.624-16.461-33.804-37.258-16.697-18.108-30.439-33.026-30.527-33.173-.103-.147-.147-.264-.074-.264.059 0 17.402 9.097 38.537 20.224 21.135 11.126 39.39 20.708 40.566 21.296l2.131 1.044c1.808-2.175 2.983-3.572 3.792-4.498.808-.925 3.16-3.38 5.232-5.452 2.073-2.058 4.718-4.571 5.894-5.585a162.901 162.901 0 013.968-3.322 167.332 167.332 0 013.895-2.984 219.38 219.38 0 014.409-3.086 149.815 149.815 0 014.41-2.822 160.998 160.998 0 014.189-2.425c1.175-.647 2.66-1.441 3.307-1.764l1.175-.603.236-6.129c-6.306-73.561-8.114-94.946-8.069-94.975.029-.03.102-.015.146.058.045.059 9.069 18.666 20.033 41.345zm-99.576 186.057c6.908.103 19.651.264 28.293.382 8.657.118 15.947.22 16.211.22h.471c19.018 38.038 24.545 49.149 24.545 49.237 0 .089-.382.118-.985.074-.559-.029-16.403-.103-35.245-.162-18.828-.058-34.436-.117-34.686-.132-.235-.015-3.851-.044-8.011-.059l-7.569-.014c-17.269-38.552-22.281-49.825-22.281-49.899 0-.088.161-.162.338-.162.191-.014 6.187.059 13.345.162 7.158.103 18.666.265 25.574.353zm-125.9 25.897c7.305 16.447 11.758 26.279 12.052 26.647.25.308.691.691.97.823.471.235 1.382.264 10.215.353 5.335.044 20.489.117 33.658.161 13.183.044 29.615.118 36.523.162l12.567.088c2.586 5.732 3.365 7.481 3.395 7.569.044.147-8.525.192-42.52.192-40.977 0-42.623.014-43.182.279-.323.147-.897.602-1.279 1.029-.397.411-.749.926-.793 1.146-.059.235-.059.676-.015.999.044.324 8.04 18.711 17.784 40.86 9.745 22.149 17.711 40.286 17.696 40.301-.015.014-12.787.044-28.396.073-15.594.03-34.407.074-41.785.118l-13.404.073c-5.189-8.627-6.702-11.199-6.717-11.258-.03-.074 1.367-.162 3.086-.206 1.705-.044 7.819-.147 13.552-.22 5.746-.089 14.697-.221 19.915-.294 5.218-.088 15.476-.25 22.825-.368 12.758-.205 13.36-.235 13.992-.514.397-.177.779-.485.956-.779.191-.294.294-.735.294-1.205 0-.412-.089-1-.206-1.323-.103-.323-6.79-15.506-14.859-33.731-8.055-18.225-14.742-33.32-14.86-33.555a3.599 3.599 0 00-.602-.779 5.639 5.639 0 00-1-.676c-.588-.294-.896-.294-41.77-.617-22.649-.162-41.212-.338-41.242-.382-.044-.044-7.349-13.596-16.24-30.13l-16.153-30.057c9.818-.162 27.822-.309 46.326-.426 18.519-.133 36.803-.28 40.639-.324l6.982-.103 11.596 26.074zm268.041 30.189c3.527 6.717 11.831 22.487 18.43 35.054a123247.53 123247.53 0 0126.015 49.457c7.702 14.639 17.843 33.908 22.546 42.844 4.689 8.936 8.569 16.344 8.613 16.461.074.191-2.675.235-23.913.338-13.198.059-28.513.147-34.025.177l-10.038.073c-19.137-38.434-24.678-49.604-24.648-49.619.014-.015 11.92-.059 26.456-.103 26.029-.103 26.426-.103 26.999-.397.412-.206.691-.485.911-.911.206-.441.28-.808.235-1.22-.044-.426-6.217-11.978-22.854-42.77-14.522-26.882-22.973-42.359-23.281-42.682-.28-.279-.765-.632-1.088-.764-.559-.265-1.881-.265-26.265-.279h-25.691c-1.779-3.704-2.587-5.336-2.94-6.026l-.617-1.25c37.332.206 48.429.265 48.752.25.323-.015.764-.147.955-.309.206-.147.5-.426.632-.617.147-.191.309-.647.353-1.014.059-.5-.852-5.115-3.836-19.504-2.146-10.376-3.909-18.886-3.909-18.93 0-.044.058-.074.117-.074.059 0 3.616 6.673 7.893 14.815 4.277 8.143 10.67 20.298 14.198 27zm-70.343-1.617c2.792 5.527 3.586 7.158 3.571 7.187-.014.03-19.518.089-43.328.118-28.381.029-43.358-.015-43.461-.103-.103-.073-.867-1.705-1.72-3.601-.852-1.896-1.587-3.571-1.631-3.704-.059-.249.397-.264 8.495-.235 4.703.015 24.207.103 43.314.191l34.76.147zm59.07 12.449c.191.353 6.07 11.214 13.066 24.148 6.981 12.934 16.52 30.571 21.179 39.199 4.659 8.627 8.436 15.756 8.392 15.844-.044.088-8.671.147-25.427.147h-25.353c-30.821-61.804-39.757-79.793-39.728-79.852.03-.059 10.73-.103 23.781-.103h23.737l.353.617zm-33.188 39.316c10.95 21.958 19.886 39.948 19.872 39.963-.03 0-20.548.044-45.607.074l-45.563.044c-27.72-61.848-35.774-79.852-35.774-79.911-.015-.059 19.607-.118 43.579-.118h43.578l19.915 39.948zm-94.153.147c9.789 21.856 17.799 39.787 17.799 39.875 0 .088-7.937.147-23.413.176-12.875.015-32.026.03-42.579.03l-19.166.014-35.156-79.955c2.851-.059 21.825-.088 44.019-.117 26.705-.03 40.389.014 40.521.117.103.074 8.201 18.02 17.975 39.86zm20.166 45.034c.132.264 5.07 11.302 10.993 24.53 8.202 18.299 10.774 24.178 10.803 24.692.029.353.147.853.265 1.102.117.236.411.574.646.75.236.176 5.527 2.66 11.773 5.512 6.232 2.866 11.347 5.276 11.347 5.379 0 .103-.147.191-.324.191-.176-.015-3.865-.103-8.186-.22-4.336-.118-20.606-.559-36.156-.956-15.565-.411-35.51-.94-44.314-1.176-8.818-.249-16.064-.485-16.123-.558-.044-.059-5.952-13.448-13.11-29.763-7.173-16.299-13.008-29.689-12.993-29.733.015-.03 19.195-.118 42.594-.162l42.564-.103.221.515z" fill="#fff"/></svg>