<svg width="134" height="51" fill="none" xmlns="http://www.w3.org/2000/svg"><path d="M118.586 7.433c-8.251 0-14.965 6.75-14.965 15.05 0 8.299 6.714 15.05 14.965 15.05 8.249 0 14.961-6.752 14.961-15.05 0-8.3-6.712-15.05-14.961-15.05zm0 22.967c-4.34 0-7.874-3.556-7.874-7.917 0-4.364 3.534-7.918 7.874-7.918 4.335 0 7.871 3.554 7.871 7.918 0 4.363-3.534 7.917-7.873 7.917h.002zM74.519 19.435l-2.617-1.314c-1.136-.566-1.848-1.004-2.134-1.327a1.58 1.58 0 01-.436-1.062c0-.508.229-.936.678-1.27.445-.348 1.078-.507 1.88-.507 1.47 0 3.097.887 4.89 2.676l4.416-4.443a11.635 11.635 0 00-4.141-3.507 11.455 11.455 0 00-5.21-1.225c-2.697 0-4.922.796-6.657 2.4-1.732 1.605-2.603 3.533-2.603 5.794 0 3.508 2.294 6.43 6.896 8.749l2.41 1.211c2.077 1.052 3.11 2.124 3.11 3.232 0 .6-.288 1.12-.861 1.581-.573.463-1.332.682-2.272.682-.871 0-1.87-.3-2.995-.91a10.076 10.076 0 01-2.938-2.38l-4.393 4.813c2.477 3.255 5.781 4.895 9.935 4.895 3.121 0 5.612-.855 7.459-2.552 1.858-1.696 2.787-3.82 2.787-6.36 0-1.904-.515-3.576-1.537-4.997-1.031-1.42-2.924-2.804-5.667-4.177v-.002zM30.09 34.254V8.032h-7.104v1.755a14.798 14.798 0 00-8.024-2.354C6.712 7.433 0 14.183 0 22.483c0 8.299 6.712 15.05 14.963 15.05a14.806 14.806 0 007.941-2.297c0 .23-.011.438-.011.578 0 4.361-3.535 7.917-7.872 7.917a7.82 7.82 0 01-4.165-1.213l-3.513 6.187a14.805 14.805 0 007.69 2.17c8.25 0 15.056-6.753 15.056-15.052 0-.321.021-1.269 0-1.57zm-15.126-3.856c-4.335 0-7.871-3.554-7.871-7.915 0-4.364 3.534-7.918 7.871-7.918 4.337 0 7.872 3.554 7.872 7.918 0 4.361-3.535 7.917-7.872 7.917v-.002zm43.42-22.376h-7.138v14.307c.012 2.033.012 5.542-1.478 7.042-.713.715-1.493 1.362-3.134 1.362-1.653 0-2.433-.647-3.143-1.362-1.492-1.502-1.48-5.02-1.471-7.041V8.021h-7.136v14.265c-.023 2.941-.058 8.402 3.522 12.025 2.1 2.124 4.603 3.209 8.216 3.209 3.616 0 6.116-1.074 8.216-3.21 3.581-3.622 3.546-9.094 3.523-12.024l.023-14.267v.002zm40.45 21.097c-.573.438-1.963 1.409-3.535 1.19-1.285-.175-2.328-1.12-2.489-4.283V14.162h8.389V8H92.81V0h-7.114v1.57h-.012v23.523c0 3.74.94 12.428 9.604 12.428 4.383-.068 7.045-2.457 8.16-3.391l.149-.117-4.27-5.285c-.012.01-.31.252-.494.391z" fill="#fff"/></svg>