<svg width="194" height="34" fill="none" xmlns="http://www.w3.org/2000/svg"><path d="M191.879 10.004c0-.743-.522-1.238-1.382-1.238l-1.688.03.031 3.779h.921v-1.3h.552l.798 1.3h1.075l-.952-1.456a1.265 1.265 0 00.645-1.115zm-1.566.496h-.583v-.96h.675a.472.472 0 01.522.402v.031a.544.544 0 01-.614.527zM54.125 27.47c-1.566 0-2.64-1.238-2.64-3.066v-8.33h6.447V10.19H51.5l-.06-6.75h-7.123l.062 22.484c0 4.552 3.008 7.65 7.43 7.65 2.333 0 4.543-.341 6.293-1.147v-5.729a8.324 8.324 0 01-3.976.774zM71.133 9.82c-6.631 0-11.727 5.202-11.727 12.109 0 6.844 5.096 11.613 12.127 11.613 3.96 0 7.675-1.424 9.947-4.366l-5.465-2.509c-1.105 1.022-2.794 1.425-4.298 1.425-2.456 0-4.912-1.27-5.25-3.872h16.302c.245-.93.369-1.887.368-2.849 0-7.092-5.127-11.551-11.988-11.551h-.016zm-4.666 9.848c.215-3.097 2.425-4.522 4.85-4.522 2.733 0 4.79 1.549 4.79 4.212v.31h-9.64zm-28.92 7.804c-1.566 0-2.64-1.238-2.64-3.066v-8.33h6.447V10.19h-6.432l-.061-6.751h-7.123l.061 22.484c0 4.552 3.01 7.65 7.43 7.65 2.333 0 4.544-.341 6.294-1.147v-5.729a8.255 8.255 0 01-3.976.774zM12.526 9.82C6.416 9.819 0 13.876 0 22.052c0 6.813 4.544 11.582 10.285 11.582 3.285 0 5.771-1.331 7.399-3.685l.214 3.283h6.893V22.33c0-8.3-6.064-12.511-12.265-12.511zm0 17.528c-3.1 0-5.342-2.322-5.342-5.605 0-3.283 2.21-5.606 5.342-5.606 2.886 0 5.28 2.54 5.28 5.606s-2.394 5.605-5.28 5.605zM190.16 7.062c-2.241.031-3.684 1.487-3.654 3.655.031 2.167 1.505 3.592 3.746 3.561 2.18-.03 3.653-1.486 3.623-3.685-.031-2.2-1.505-3.562-3.715-3.53zm.092 6.597c-1.75.03-2.947-1.146-2.947-2.942 0-1.797 1.136-3.004 2.885-3.035 1.75-.031 2.917 1.145 2.948 2.973 0 1.765-1.167 2.973-2.871 3.004h-.015zm-34.907-3.438l-4.973 14.556-5.035-14.556H137.6l9.272 22.98h6.938l9.272-22.98h-7.737zm18.451-.402c-6.631 0-11.727 5.202-11.727 12.109 0 6.844 5.096 11.613 12.126 11.613 3.961 0 7.676-1.424 9.947-4.366l-5.464-2.509c-1.106 1.022-2.794 1.425-4.298 1.425-2.456 0-4.912-1.27-5.25-3.872h16.302c.245-.93.369-1.887.368-2.849 0-7.092-5.127-11.551-12.004-11.551zm4.974 9.848h-9.64c.215-3.097 2.425-4.522 4.851-4.522 2.732 0 4.789 1.549 4.789 4.212v.31zM132.105.125c-2.518 0-4.421 1.703-4.421 4.088s1.903 4.15 4.421 4.15c2.517 0 4.421-1.734 4.421-4.15 0-2.416-1.873-4.088-4.421-4.088zM99.777 9.788a8.283 8.283 0 00-4.125 1.024 8.373 8.373 0 00-3.09 2.94l-.245-3.53H85.44V33.2h7.122V21.153c.154-2.88 2.457-5.079 4.974-5.079 2.824 0 4.114 2.137 4.114 4.832V33.17h7.092V19.79c0-5.821-3.516-10.002-8.965-10.002zm21.736 17.683c-1.566 0-2.64-1.238-2.64-3.066v-8.33h6.447V10.19h-6.447l-.062-6.751h-7.122l.061 22.484c0 4.552 3.009 7.65 7.43 7.65 2.333 0 4.544-.341 6.294-1.147v-5.729a8.258 8.258 0 01-3.961.774zm7-17.25v22.98h7.184V10.22a6.461 6.461 0 01-7.184 0z" fill="#fff"/></svg>