<svg width="203" height="29" fill="none" xmlns="http://www.w3.org/2000/svg"><path d="M120.409.625c-4.166 0-8.24 3.774-8.708 9.226V1.075h-5.984v26.461h6.057V14.728c0-3.588 2.543-8.65 8.635-8.65V.626zM183.945 23.3V5.17h3.509c4.678 0 8.48 2.925 8.48 8.92 0 5.994-3.802 9.21-8.48 9.21h-3.509zm-5.994 4.24h10.234c6.287 0 14.035-4.094 14.035-13.45 0-9.212-7.748-13.013-14.035-13.013h-10.234V27.54zm-22.936-13.158c0-4.825 2.485-8.772 6.579-8.772 3.947 0 6.14 3.947 6.14 8.772s-2.193 8.772-6.14 8.772c-4.094 0-6.579-3.947-6.579-8.772zm-6.141.292c0 7.895 4.094 13.451 10.527 13.451 4.678 0 7.456-3.07 8.918-8.041v7.456h5.993V1.077h-5.993v7.018C167.003 3.417 164.226.64 159.84.64c-6.58 0-10.966 5.994-10.966 14.035zM12.373 28.125C4.916 28.125.53 22.131.53 14.675.53 6.924 5.355.638 14.566.638c9.503 0 12.72 6.433 12.865 10.088H20.56c-.146-2.047-1.9-5.117-6.14-5.117-4.533 0-7.457 3.947-7.457 8.772s2.924 8.772 7.456 8.772c4.094 0 5.849-3.216 6.58-6.433h-6.58v-2.63h13.806v13.45h-6.057v-8.48c-.438 3.07-2.339 9.065-9.795 9.065zm28.132 0c-5.702 0-9.211-3.802-9.211-11.404V1.077h6.14v15.644c0 3.947 1.9 5.848 5.117 5.848 6.287 0 8.626-7.749 8.626-13.158V1.077h6.14V27.54h-5.994v-9.796c-1.17 5.41-4.386 10.38-10.819 10.38zM94.012.625c-5.24 0-8.544 5.06-9.623 9.74-.184-6.27-3.268-9.74-8.202-9.74-4.263 0-8.218 3.802-9.245 9.816V1.075h-5.986v26.463h6.062v-9.486c0-2.352.98-12.004 7.084-12.004 3.954 0 4.366 3.566 4.366 8.44v13.05h6.06v-9.486c0-2.352 1.02-12.004 7.124-12.004 3.95 0 4.358 3.566 4.358 8.44v13.05h6.068V11.886c.028-7.51-2.623-11.261-8.066-11.261zm39.404 0c-7.848 0-13.166 6.154-13.166 13.75 0 8.37 5.058 13.75 13.166 13.75 7.849 0 13.261-6.154 13.261-13.75 0-8.37-5.155-13.75-13.261-13.75zm0 22.816c-4.569 0-7.528-3.868-7.528-9.066s2.969-9.066 7.528-9.066c4.559 0 7.41 3.868 7.41 9.066s-2.854 9.066-7.41 9.066z" fill="#fff"/></svg>