<svg width="148" height="40" fill="none" xmlns="http://www.w3.org/2000/svg"><path d="M21.23 19.631a1.005 1.005 0 01-.192-.848l2.096-9.08-8.931 10.305h3.81a1.001 1.001 0 01.975 1.225l-2.096 9.08 8.93-10.305h-3.81c-.304 0-.592-.139-.782-.377z" fill="#1C2436"/><path d="M20 0C8.972 0 0 8.972 0 20s8.972 20 20 20 20-8.972 20-20S31.028 0 20 0zm8.756 19.655l-13 15a1 1 0 01-1.73-.88L16.743 22H12a1.001 1.001 0 01-.756-1.654l13-15a1 1 0 011.73.88l-2.718 11.775h4.743a1 1 0 01.757 1.654z" fill="#2A514C"/><path d="M141.443 31.33c-.82 0-1.63-.11-2.43-.33a9.45 9.45 0 01-2.16-.9c-.66-.4-1.23-.88-1.71-1.44l2.34-2.37c.5.56 1.08.98 1.74 1.26.66.28 1.39.42 2.19.42.64 0 1.12-.09 1.44-.27.34-.18.51-.45.51-.81 0-.4-.18-.71-.54-.93-.34-.22-.79-.4-1.35-.54-.56-.16-1.15-.33-1.77-.51-.6-.2-1.18-.45-1.74-.75-.56-.32-1.02-.75-1.38-1.29-.34-.56-.51-1.28-.51-2.16 0-.92.22-1.72.66-2.4.46-.68 1.11-1.21 1.95-1.59.84-.38 1.83-.57 2.97-.57 1.2 0 2.28.21 3.24.63.98.42 1.79 1.05 2.43 1.89l-2.37 2.37c-.44-.54-.94-.93-1.5-1.17-.54-.24-1.13-.36-1.77-.36-.58 0-1.03.09-1.35.27-.3.18-.45.43-.45.75 0 .36.17.64.51.84.36.2.82.38 1.38.54.56.14 1.14.31 1.74.51.62.18 1.2.44 1.74.78.56.34 1.01.79 1.35 1.35.36.56.54 1.28.54 2.16 0 1.42-.51 2.55-1.53 3.39-1.02.82-2.41 1.23-4.17 1.23zm-13.849-.03c-1.28 0-2.42-.27-3.42-.81a5.947 5.947 0 01-2.31-2.25c-.56-.96-.84-2.07-.84-3.33v-8.4h3.96v8.31c0 .6.1 1.12.3 1.56.2.42.5.74.9.96.4.22.87.33 1.41.33.82 0 1.46-.25 1.92-.75.46-.5.69-1.2.69-2.1v-8.31h3.93v8.4c0 1.28-.28 2.4-.84 3.36a5.69 5.69 0 01-2.31 2.25c-.98.52-2.11.78-3.39.78zm-12.792-.3V9.31h3.93V31h-3.93zm-14.267-7.83v-3.33h4.89c.64 0 1.22-.13 1.74-.39s.93-.63 1.23-1.11c.3-.5.45-1.1.45-1.8 0-.68-.15-1.27-.45-1.77-.3-.5-.71-.88-1.23-1.14-.52-.26-1.1-.39-1.74-.39h-4.89V9.91h5.31c1.34 0 2.54.27 3.6.81 1.08.54 1.93 1.31 2.55 2.31.62.98.93 2.15.93 3.51 0 1.36-.31 2.54-.93 3.54-.62.98-1.47 1.74-2.55 2.28-1.06.54-2.26.81-3.6.81h-5.31zm-3 7.83V9.91h4.08V31h-4.08zm-6.715 0v-8.31c0-.86-.27-1.56-.81-2.1s-1.24-.81-2.1-.81c-.56 0-1.06.12-1.5.36-.44.24-.79.58-1.05 1.02-.24.44-.36.95-.36 1.53l-1.53-.78c0-1.14.24-2.13.72-2.97.5-.86 1.18-1.53 2.04-2.01.88-.48 1.87-.72 2.97-.72 1.06 0 2.01.27 2.85.81.84.52 1.5 1.21 1.98 2.07.48.84.72 1.75.72 2.73V31h-3.93zm-9.75 0V16.51H85V31h-3.93zm-8.87.3c-1.28 0-2.42-.27-3.42-.81a5.947 5.947 0 01-2.31-2.25c-.56-.96-.84-2.07-.84-3.33v-8.4h3.96v8.31c0 .6.1 1.12.3 1.56.2.42.5.74.9.96.4.22.87.33 1.41.33.82 0 1.46-.25 1.92-.75.46-.5.69-1.2.69-2.1v-8.31h3.93v8.4c0 1.28-.28 2.4-.84 3.36a5.69 5.69 0 01-2.31 2.25c-.98.52-2.11.78-3.39.78zm-15.92 0c-1.7 0-3.16-.29-4.38-.87-1.2-.58-2.29-1.45-3.27-2.61l2.7-2.7c.62.82 1.34 1.46 2.16 1.92.82.44 1.82.66 3 .66 1.06 0 1.9-.21 2.52-.63.64-.42.96-1 .96-1.74 0-.64-.18-1.16-.54-1.56-.36-.4-.84-.74-1.44-1.02-.58-.28-1.23-.53-1.95-.75-.7-.24-1.41-.51-2.13-.81-.7-.3-1.35-.67-1.95-1.11a5.25 5.25 0 01-1.41-1.74c-.36-.72-.54-1.62-.54-2.7 0-1.28.31-2.37.93-3.27.62-.9 1.47-1.59 2.55-2.07 1.08-.48 2.3-.72 3.66-.72 1.44 0 2.74.27 3.9.81 1.16.54 2.11 1.24 2.85 2.1l-2.7 2.7c-.62-.68-1.26-1.18-1.92-1.5-.64-.32-1.37-.48-2.19-.48-.94 0-1.68.18-2.22.54-.54.36-.81.88-.81 1.56 0 .58.18 1.05.54 1.41.36.36.83.67 1.41.93.6.26 1.25.51 1.95.75.72.24 1.43.51 2.13.81.72.3 1.37.69 1.95 1.17.6.48 1.08 1.1 1.44 1.86.36.74.54 1.66.54 2.76 0 1.96-.69 3.5-2.07 4.62s-3.27 1.68-5.67 1.68z" fill="#1C2436"/></svg>