<svg width="281" height="436" fill="none" xmlns="http://www.w3.org/2000/svg"><path fill-rule="evenodd" clip-rule="evenodd" d="M144.306 435.693h.025a1.992 1.992 0 001.991-1.967l3.252-261.169a1.99 1.99 0 00-1.966-2.015h-.026a1.99 1.99 0 00-1.99 1.966l-3.252 261.169a1.991 1.991 0 001.966 2.016zm13.785-1.951a1.991 1.991 0 001.991 1.966h.025a1.992 1.992 0 001.966-2.017l-3.252-261.183a1.992 1.992 0 00-1.991-1.966h-.025a1.99 1.99 0 00-1.966 2.015l3.252 261.185z" fill="#fff"/><path fill-rule="evenodd" clip-rule="evenodd" d="M25.487 155.131a.996.996 0 001.992 0c0-66.79 52.195-121.888 118.827-125.437a.995.995 0 00-.106-1.99C78.51 31.312 25.487 87.284 25.487 155.132zM267.5 209.447a.993.993 0 001.322-.482c7.882-16.916 11.878-35.028 11.878-53.835 0-22.722-6.047-45.031-17.486-64.516a128.366 128.366 0 00-45.933-45.797.995.995 0 10-1.003 1.72c38.509 22.456 62.432 64.066 62.432 108.593 0 18.514-3.934 36.344-11.692 52.994a.996.996 0 00.482 1.323zm-17.551-18.638a.996.996 0 01-.937-1.331c3.939-10.999 5.936-22.555 5.936-34.347 0-32.207-15.493-62.867-41.444-82.014a.996.996 0 011.183-1.602c12.817 9.458 23.446 21.92 30.736 36.038 7.642 14.8 11.516 30.807 11.516 47.578 0 12.022-2.036 23.803-6.052 35.018a.996.996 0 01-.938.66zm-173.338 32.56a.996.996 0 00-.078 1.406c7.94 8.879 17.323 16.289 27.889 22.024 14.74 8 30.656 12.231 47.309 12.575 15.886.327 31.909-3.07 46.336-9.822a.997.997 0 00-.844-1.804c-29.208 13.674-63.545 12.665-91.851-2.699-10.364-5.625-19.568-12.893-27.356-21.602a.995.995 0 00-1.405-.078zm-24.964 6.801a.992.992 0 00-.207 1.392c11.107 14.997 25.12 27.149 41.648 36.121 19.97 10.839 42.462 16.166 65.044 15.408a128.362 128.362 0 0062.162-18.524.994.994 0 00.333-1.367.994.994 0 00-1.366-.335c-38.107 23.133-86.089 24.309-125.223 3.069-16.272-8.832-30.066-20.795-40.999-35.556a.996.996 0 00-1.392-.208zm.088-91.594a.995.995 0 01-.982-1.164c6.903-40.152 36.868-72.671 76.343-82.846a.994.994 0 011.212.716.994.994 0 01-.716 1.212c-38.715 9.98-68.108 41.875-74.877 81.256a.996.996 0 01-.98.826zm98.124-4.222c-.5.147-1.011.09-1.444-.124a1.982 1.982 0 01-1.029-1.222c-1.292-4.379-2.558-10.841-1.25-16.763 4.149-18.77 43.792-111.113 45.478-115.034a1.99 1.99 0 013.747 1.317l-36.082 130.455a1.99 1.99 0 01-3.838-1.062L183.42 30.765c-12.498 29.815-30.743 74.341-33.395 86.339-1.126 5.094.021 10.847 1.18 14.777a1.992 1.992 0 01-1.346 2.473zm-5.064 3.583a15.817 15.817 0 00-4.052 3.57 15.694 15.694 0 00-3.406 11.603c.931 8.662 8.737 14.951 17.398 14.02a15.7 15.7 0 0010.614-5.796 15.697 15.697 0 003.406-11.604 15.695 15.695 0 00-5.795-10.613 15.7 15.7 0 00-11.604-3.406 15.74 15.74 0 00-6.561 2.226zm14.423 23.569a11.752 11.752 0 01-4.907 1.664c-6.479.698-12.318-4.007-13.015-10.486a11.746 11.746 0 012.548-8.679 11.741 11.741 0 017.938-4.335 11.736 11.736 0 018.679 2.548 11.737 11.737 0 014.335 7.938 11.74 11.74 0 01-2.547 8.679 11.854 11.854 0 01-3.031 2.671zm-14.17-9.225a8.058 8.058 0 013.806-7.725 8.003 8.003 0 013.332-1.134c4.41-.474 8.384 2.728 8.859 7.138.473 4.41-2.728 8.384-7.138 8.859-4.411.474-8.384-2.728-8.859-7.138zm8.433 3.178a4.068 4.068 0 003.605-4.473 4.069 4.069 0 00-4.474-3.605 4.07 4.07 0 00-3.605 4.474 4.067 4.067 0 004.474 3.604zm17.217-.026a1.99 1.99 0 00.888 3.537c4.041.681 9.714 2.172 13.799 5.417 9.622 7.643 41.644 43.56 62.964 67.861l-78.655-69.488a1.992 1.992 0 00-2.637 2.985l101.438 89.615a1.993 1.993 0 002.827-2.792c-2.786-3.234-68.408-79.343-83.46-91.3-4.749-3.771-11.112-5.466-15.615-6.224a1.982 1.982 0 00-1.549.389zm-31.25 9.068a1.991 1.991 0 00-3.409-1.298c-2.872 2.922-7.345 6.718-12.344 8.208-11.777 3.507-59.56 9.179-91.692 12.731l102.014-24.661a1.992 1.992 0 00-.936-3.871L1.518 187.415a1.991 1.991 0 00.67 3.916c4.245-.431 104.221-10.617 122.644-16.104 5.812-1.732 10.846-5.976 14.047-9.232.406-.413.595-.958.569-1.494z" fill="#fff"/></svg>