<svg width="158" height="31" fill="none" xmlns="http://www.w3.org/2000/svg"><path d="M71.647 10.989v18.267h-4.22V.674l18.88 19.075V1.385h4.222V30.07L71.647 10.989zM115.382.263c-8.26 0-14.977 6.775-14.977 15.108 0 8.33 6.717 15.103 14.977 15.103 8.257 0 14.977-6.774 14.977-15.103 0-8.333-6.72-15.108-14.977-15.108zm0 25.921c-5.855 0-10.621-4.852-10.621-10.813 0-5.962 4.766-10.813 10.621-10.813 5.857 0 10.618 4.851 10.618 10.813 0 5.961-4.761 10.813-10.618 10.813zM42.561.264c-8.26 0-14.977 6.774-14.977 15.107 0 8.33 6.717 15.103 14.977 15.103 8.261 0 14.977-6.774 14.977-15.103C57.538 7.038 50.822.263 42.56.263zm0 25.92c-5.857 0-10.618-4.852-10.618-10.813 0-5.962 4.761-10.813 10.618-10.813 5.855 0 10.62 4.851 10.62 10.813 0 5.961-4.765 10.813-10.62 10.813zm-33.349-8.69l-.017-.008c-2.82-.903-4.707-1.793-6.13-2.89C1.034 13.034 0 11.041 0 8.674c0-2.218 1.022-4.379 2.804-5.941 1.82-1.594 4.328-2.47 7.06-2.47 5.717 0 8.985 3.843 9.122 4.008l-3.47 2.364c-.803-.606-2.914-1.965-5.653-1.965-3.44 0-5.495 2.035-5.495 4.004 0 1.373.747 2.882 6.148 4.616l.021.004c2.813.9 4.707 1.793 6.127 2.886 2.035 1.566 3.067 3.559 3.067 5.927 0 2.217-1.023 4.381-2.808 5.94-1.816 1.59-4.323 2.466-7.058 2.466-5.716 0-8.984-3.839-9.12-4.004l3.472-2.364c.802.607 2.913 1.965 5.648 1.965 3.44 0 5.498-2.03 5.498-4.003 0-1.373-.744-2.883-6.15-4.614zm138.215 0l-.019-.008c-2.817-.903-4.707-1.793-6.126-2.89-2.032-1.562-3.069-3.555-3.069-5.923 0-2.217 1.025-4.378 2.808-5.94 1.814-1.594 4.319-2.47 7.058-2.47 5.718 0 8.987 3.843 9.126 4.008l-3.474 2.364c-.802-.606-2.913-1.965-5.652-1.965-3.442 0-5.499 2.035-5.499 4.004 0 1.373.748 2.882 6.154 4.616l.021.004c2.815.9 4.703 1.793 6.126 2.886 2.029 1.566 3.064 3.559 3.064 5.927 0 2.217-1.022 4.381-2.802 5.94-1.819 1.59-4.327 2.466-7.063 2.466-5.716 0-8.982-3.839-9.12-4.004l3.471-2.364c.804.607 2.91 1.965 5.649 1.965 3.444 0 5.496-2.03 5.496-4.003-.001-1.373-.745-2.883-6.149-4.614z" fill="#1C2436"/></svg>